<svg xmlns="http://www.w3.org/2000/svg" xmlns:xlink="http://www.w3.org/1999/xlink" version="1.1" x="0px" y="0px" viewBox="0 0 136 170" style="enable-background:new 0 0 136 136;" xml:space="preserve"><path d="M111.2900391,90.5700073c-5.5600586,0-10.6098633,2.1999512-14.3398438,5.7799683L55.9001465,74.3900146  C56.4199219,72.3399658,56.6899414,70.2000122,56.6899414,68s-0.2700195-4.3400269-0.7897949-6.3900146l41.0500488-21.960022  c3.7299805,3.5800171,8.7797852,5.7800293,14.3398438,5.7800293C122.7099609,45.4299927,132,36.1400146,132,24.7199707  C132,13.289978,122.7099609,4,111.2900391,4c-11.4299316,0-20.7199707,9.289978-20.7199707,20.7199707  c0,1.2399902,0.1101074,2.4500122,0.3200684,3.6300049l-41.0500488,21.960022  c-4.8200684-5.3200073-11.7700195-8.6600342-19.4899902-8.6600342C15.8200684,41.6499634,4,53.4699707,4,68  c0,14.5299683,11.8200684,26.3499756,26.3500977,26.3499756c7.7199707,0,14.6699219-3.3399658,19.4899902-8.6599731  l41.0500488,21.9599609c-0.2099609,1.1799927-0.3200684,2.3900146-0.3200684,3.6300049  C90.5700684,122.7099609,99.8601074,132,111.2900391,132C122.7099609,132,132,122.7099609,132,111.2799683  C132,99.8599854,122.7099609,90.5700073,111.2900391,90.5700073z M111.2856445,14.0209961  c5.90625,0,10.6943359,4.7880859,10.6943359,10.694458s-4.7880859,10.694458-10.6943359,10.694458  s-10.6943359-4.7880859-10.6943359-10.694458S105.3793945,14.0209961,111.2856445,14.0209961z M30.3466797,81.7484741  c-7.5930176,0-13.7485352-6.1553955-13.7485352-13.7484741s6.1555176-13.7484741,13.7485352-13.7484741  c7.5932617,0,13.7485352,6.1553955,13.7485352,13.7484741S37.9399414,81.7484741,30.3466797,81.7484741z M111.2856445,121.9789429  c-5.90625,0-10.6943359-4.7880859-10.6943359-10.694458s4.7880859-10.694458,10.6943359-10.694458  s10.6943359,4.7880859,10.6943359,10.694458S117.1918945,121.9789429,111.2856445,121.9789429z"/><text x="0" y="151" fill="#000000" font-size="5px" font-weight="bold" font-family="'Helvetica Neue', Helvetica, Arial-Unicode, Arial, Sans-serif">Created by Vectorstall</text><text x="0" y="156" fill="#000000" font-size="5px" font-weight="bold" font-family="'Helvetica Neue', Helvetica, Arial-Unicode, Arial, Sans-serif">from the Noun Project</text></svg>